<?xml version="1.0" standalone="no"?>
<!DOCTYPE svg PUBLIC "-//W3C//DTD SVG 20010904//EN"
 "http://www.w3.org/TR/2001/REC-SVG-20010904/DTD/svg10.dtd">
<svg version="1.0" xmlns="http://www.w3.org/2000/svg"
 width="300.000000pt" height="300.000000pt" viewBox="0 0 300.000000 300.000000"
 preserveAspectRatio="xMidYMid meet">
<metadata>
Created by potrace 1.11, written by Peter Selinger 2001-2013
</metadata>
<g transform="translate(0.000000,300.000000) scale(0.100000,-0.100000)"
fill="#000000" stroke="none">
<path d="M1249 2996 c-2 -3 -24 -7 -49 -9 -66 -8 -108 -17 -175 -39 -33 -11
-68 -21 -77 -23 -10 -2 -55 -22 -102 -43 -286 -135 -524 -369 -675 -666 -84
-165 -109 -241 -157 -471 -3 -16 -8 -104 -9 -195 -5 -301 59 -537 219 -800
162 -265 402 -483 676 -612 76 -36 242 -94 296 -104 16 -3 49 -10 74 -16 58
-14 360 -19 425 -8 158 27 198 36 285 67 149 52 336 154 445 243 43 35 215
208 249 250 98 120 209 329 261 488 84 257 84 565 -2 822 -187 563 -755 1028
-1353 1109 -64 8 -324 14 -331 7z"/>
</g>
</svg>
